HIERARCHY
ROOT ui
{
	 OFFSET 0 0 0
	 CHANNELS 3 XPosition YPosition Z Position
	 EndSite
	 {
	 OFFSET 0 -1 0
	 }
}
ROOT li
{
	 OFFSET 0 0 0
	 CHANNELS 3 XPosition YPosition Z Position
	 EndSite
	 {
	 OFFSET 0 -1 0
	 }
}
ROOT ul
{
	 OFFSET 0 0 0
	 CHANNELS 3 XPosition YPosition Z Position
	 EndSite
	 {
	 OFFSET 0 -1 0
	 }
}
ROOT ll
{
	 OFFSET 0 0 0
	 CHANNELS 3 XPosition YPosition Z Position
	 EndSite
	 {
	 OFFSET 0 -1 0
	 }
}
ROOT tt
{
	 OFFSET 0 0 0
	 CHANNELS 3 XPosition YPosition Z Position
	 EndSite
	 {
	 OFFSET 0 -1 0
	 }
}
ROOT tb
{
	 OFFSET 0 0 0
	 CHANNELS 3 XPosition YPosition Z Position
	 EndSite
	 {
	 OFFSET 0 -1 0
	 }
}
ROOT td
{
	 OFFSET 0 0 0
	 CHANNELS 3 XPosition YPosition Z Position
	 EndSite
	 {
	 OFFSET 0 -1 0
	 }
}
ROOT v
{
	 OFFSET 0 0 0
	 CHANNELS 3 XPosition YPosition Z Position
	 EndSite
	 {
	 OFFSET 0 -1 0
	 }
}
ROOT bn
{
	 OFFSET 0 0 0
	 CHANNELS 3 XPosition YPosition Z Position
	 EndSite
	 {
	 OFFSET 0 -1 0
	 }
}
MOTION
Frames: 24
Frame Time: 0.002
-0.02393406105041504	-0.0022000229358673097	0		0.46725732421875	-2.63914599609375	0		-0.9302360229492187	0.390629150390625	0		-0.14201437377929688	-3.281641845703125	0		1.486059814453125	-1.107641357421875	0		2.905759033203125	-0.2752181396484375	0		4.2836533203125	-0.40821371459960937	0		5.86496826171875	0.35779013061523435	0		-0.3708228759765625	5.9267333984375	0		
0.05809917449951172	0.0014087729454040528	0		0.5192084350585937	-2.645995361328125	0		-0.9211552734375	0.3984689636230469	0		-0.1331529083251953	-3.294767822265625	0		1.4957657470703125	-1.124719482421875	0		2.856048583984375	-0.2562038269042969	0		4.27390771484375	-0.39183901977539065	0		5.85852197265625	0.358522216796875	0		-0.23971905517578124	5.94747509765625	0		
-0.028902387619018553	0.0029477369785308838	0		0.5043422241210938	-2.64368408203125	0		-0.9421488037109375	0.4008233337402344	0		-0.09320783233642578	-3.305434814453125	0		1.49245263671875	-1.14457177734375	0		2.8716787109375	-0.27732763671875	0		4.264962890625	-0.38847372436523436	0		5.85851318359375	0.35900225830078125	0		-0.25415525817871093	5.93773876953125	0		
-0.003914416074752808	0.0015377399921417236	0		0.5112448120117188	-2.65675732421875	0		-0.94215771484375	0.40080389404296873	0		-0.12909629821777344	-3.307793701171875	0		1.485341552734375	-1.154359130859375	0		2.84172216796875	-0.2756572570800781	0		4.2680751953125	-0.38331121826171877	0		5.851388671875	0.3597988586425781	0		-0.25539613342285156	5.938767578125	0		
-0.02701909065246582	-0.00605182695388794	0		0.5192106323242187	-2.66785595703125	0		-0.9303211059570312	0.3905669860839844	0		-0.09227596282958984	-3.3294208984375	0		1.5092333984375	-1.1656868896484376	0		2.85674560546875	-0.2767667236328125	0		4.26634765625	-0.37006185913085937	0		5.85805078125	0.39117318725585937	0		-0.40693728637695314	5.9233720703125	0		
0.046140415191650394	-3.0743300914764404E-4	0		0.4695382385253906	-2.658971923828125	0		-0.9302908325195313	0.39052117919921875	0		-0.151896728515625	-3.3193955078125	0		1.5021190185546875	-1.17848876953125	0		2.85515283203125	-0.2565922241210937	0		4.2677421875	-0.3508684387207031	0		5.8580869140625	0.391681396484375	0		-0.37310211181640623	5.92776806640625	0		
-0.02874456214904785	0.0029644460678100587	0		0.5196013793945312	-2.667817138671875	0		-0.93615478515625	0.3955605163574219	0		-0.09388617706298828	-3.3334091796875	0		1.526040771484375	-1.190834716796875	0		2.87214794921875	-0.261749267578125	0		4.266052734375	-0.3376296081542969	0		5.8581376953125	0.392182861328125	0		-0.25515113830566405	5.93771142578125	0		
0.0012375279664993287	-0.003580209016799927	0		0.49080340576171877	-2.66932568359375	0		-0.942000732421875	0.40058016967773435	0		-0.12963038635253907	-3.33383154296875	0		1.541054931640625	-1.199039794921875	0		2.879403564453125	-0.25274807739257815	0		4.26029736328125	-0.3293316955566406	0		5.85820166015625	0.3926724548339844	0		-0.24121151733398438	5.94742578125	0		
-0.006619236946105957	-0.0014956909418106078	0		0.5071576843261719	-2.663623291015625	0		-0.9360007934570312	0.39537567138671875	0		-0.10046271514892578	-3.34138232421875	0		1.534076416015625	-1.2078861083984376	0		2.84366650390625	-0.24402987670898438	0		4.26174658203125	-0.3101688232421875	0		5.854109375	0.4088865051269531	0		-0.3737856140136719	5.9276103515625	0		
-0.03148750495910645	-0.0011448379755020141	0		0.4613215637207031	-2.66988671875	0		-0.94180908203125	0.4003519287109375	0		-0.0913877944946289	-3.355611328125	0		1.5381014404296875	-1.2179400634765625	0		2.828827392578125	-0.24269044494628905	0		4.25499462890625	-0.30388702392578126	0		5.86160986328125	0.3467310791015625	0		-0.40806671142578127	5.92309423828125	0		
0.051601795196533205	-0.005644802093505859	0		0.5274263916015625	-2.68207080078125	0		-0.925783203125	0.39393441772460935	0		-0.1081316146850586	-3.360424072265625	0		1.5213909912109376	-1.213663330078125	0		2.863173583984375	-0.23220515441894532	0		4.259568359375	-0.27981719970703123	0		5.86952880859375	0.34162030029296875	0		-0.3721984558105469	5.92536669921875	0		
-0.028088903427124022	0.0025857770442962646	0		0.4680497131347656	-2.664152099609375	0		-0.9323884887695313	0.4078798217773438	0		-0.09068376922607421	-3.35583642578125	0		1.5775120849609374	-1.2216407470703126	0		2.836622802734375	-0.2167128143310547	0		4.26001611328125	-0.26470236206054687	0		5.8696591796875	0.3419794006347656	0		-0.24196139526367189	5.947033203125	0		
-0.0028986499309539794	0.001021299958229065	0		0.5151996459960938	-2.67705712890625	0		-0.9521639404296875	0.4100206298828125	0		-0.095404296875	-3.362899658203125	0		1.5337293701171875	-1.224957275390625	0		2.82184765625	-0.21644725036621093	0		4.24437841796875	-0.25634237670898435	0		5.86981103515625	0.34229559326171877	0		-0.2572286376953125	5.9381298828125	0		
-0.02578401756286621	-0.006760193824768067	0		0.4876123046875	-2.675727783203125	0		-0.9560073852539063	0.4058685302734375	0		-0.03820029830932617	-3.377024658203125	0		1.567886474609375	-1.2346085205078126	0		2.822104736328125	-0.21646011352539063	0		4.25385400390625	-0.2434298095703125	0		5.85918310546875	0.3274310302734375	0		-0.3896582946777344	5.91816064453125	0		
0.04455915832519531	-0.0041216850280761715	0		0.5139876098632813	-2.67932666015625	0		-0.960809326171875	0.4017098083496094	0		-0.09859183502197266	-3.368201416015625	0		1.5430582275390625	-1.245297607421875	0		2.8254853515625	-0.2115514678955078	0		4.24447119140625	-0.22422959899902345	0		5.8559423828125	0.34508566284179687	0		-0.3896890869140625	5.9179482421875	0		
-0.027014787673950196	0.001862725019454956	0		0.4724144592285156	-2.68181591796875	0		-0.9554315185546876	0.40536166381835936	0		-0.055324153900146486	-3.383134765625	0		1.5882825927734374	-1.256179931640625	0		2.817345703125	-0.18047509765625	0		4.2430322265625	-0.21119395446777345	0		5.8598544921875	0.3606623840332031	0		-0.37646392822265623	5.92949560546875	0		
0.048326103210449216	-0.0016186859607696534	0		0.5268577270507813	-2.686924072265625	0		-0.8830769653320313	0.40388385009765626	0		-0.08466880798339843	-3.376877197265625	0		1.58184619140625	-1.2492227783203125	0		2.825704833984375	-0.18270474243164062	0		4.2347431640625	-0.19207408142089843	0		5.86012890625	0.360756103515625	0		-0.24402589416503906	5.94904833984375	0		
-0.026191877365112304	0.0013672449588775634	0		0.4895935974121094	-2.676528564453125	0		-0.8877228393554687	0.3996690673828125	0		-0.039126773834228516	-3.38088134765625	0		1.5871611328125	-1.2604857177734374	0		2.824334228515625	-0.17179632568359374	0		4.24032275390625	-0.184214599609375	0		5.86044384765625	0.3607921447753906	0		-0.39039349365234377	5.91819921875	0		
0.046208328247070315	-0.005094995021820068	0		0.52395361328125	-2.69233984375	0		-0.8953790283203125	0.3914881896972656	0		-0.10137577056884765	-3.374119140625	0		1.5808428955078124	-1.2525748291015626	0		2.79908544921875	-0.1565177459716797	0		4.23417041015625	-0.16318695068359376	0		5.8607958984375	0.36077191162109373	0		-0.391132080078125	5.919923828125	0		
-0.025155908584594728	8.006979823112488E-4	0		0.4727163391113281	-2.685753173828125	0		-0.9678421020507812	0.392361328125	0		-0.028028938293457033	-3.395611572265625	0		1.588306640625	-1.2609122314453125	0		2.8079306640625	-0.1388238525390625	0		4.24190087890625	-0.1524152069091797	0		5.868982421875	0.353466796875	0		-0.40978604125976564	5.92292919921875	0		
0.05039016342163086	-0.0027339739799499513	0		0.47749432373046874	-2.681103515625	0		-0.9622037963867187	0.39593685913085935	0		-0.08408304595947266	-3.381982177734375	0		1.5978792724609374	-1.265299072265625	0		2.827719482421875	-0.12732807159423828	0		4.236890625	-0.1284534149169922	0		5.86940380859375	0.3533502197265625	0		-0.24202980041503908	5.94586572265625	0		
-0.013778677940368652	0.010017081260681153	0		0.5311508178710938	-2.686265869140625	0		-0.8936677856445312	0.3904736022949219	0		-0.022466142654418944	-3.391296630859375	0		1.591685791015625	-1.2574375	0		2.8055498046875	-0.1151577377319336	0		4.23776708984375	-0.11360578918457032	0		5.86985107421875	0.3532004089355469	0		-0.3759259033203125	5.9287392578125	0		
0.05166654205322266	-0.00336480188369751	0		0.49303756713867186	-2.67793115234375	0		-0.8980968017578125	0.3862011413574219	0		-0.11331723785400391	-3.368118896484375	0		1.5903179931640625	-1.2616658935546874	0		2.77033984375	-0.10678692626953125	0		4.22176708984375	-0.09249344635009765	0		5.86664501953125	0.3375998840332031	0		-0.25733367919921873	5.93747509765625	0		
-0.022632894515991212	-4.678429961204529E-4	0		0.517708740234375	-2.683630615234375	0		-0.9065822143554687	0.377989013671875	0		-0.05270706558227539	-3.379426513671875	0		1.5910220947265625	-1.2619346923828125	0		2.805062255859375	-0.1035672378540039	0		4.220640625	-0.07963510894775391	0		5.86711572265625	0.337406982421875	0		-0.3892177734375	5.91829296875	0		
